<svg enable-background="new 0 0 1066.91 255.11" viewBox="0 0 1066.91 255.11" xmlns="http://www.w3.org/2000/svg" xmlns:xlink="http://www.w3.org/1999/xlink"><linearGradient id="a"><stop offset="0" stop-color="#00aeff"/><stop offset=".9892" stop-color="#058ac9"/></linearGradient><linearGradient id="b" gradientUnits="userSpaceOnUse" x1="145.6567" x2="114.6565" xlink:href="#a" y1="-17.0038" y2="234.9964"/><linearGradient id="c" gradientUnits="userSpaceOnUse" x1="992.0234" x2="961.0231" xlink:href="#a" y1="87.1125" y2="339.1136"/><g fill="#fff"><path d="m623.96 227.11-13.49 27.71h-2.36l-4.41-16.92-9.23 16.92h-2.39l-5.6-27.71h5.49l2.97 16.1 8.73-16.1h2.81l4.18 16.1 7.4-16.1z"/><path d="m644.56 227.11-.65 4.6h-11.26l-.91 6.42h9.9l-.65 4.6h-9.9l-1.01 7.17h14.2l-.65 4.56h-20.01l3.86-27.36h17.08z"/><path d="m650.95 227.11h8.69c2.98 0 5.24.6 6.79 1.79s2.32 2.8 2.32 4.82c0 2.7-1.33 4.73-3.97 6.09 1.59.48 2.84 1.34 3.74 2.57s1.35 2.61 1.35 4.13c0 2.09-.84 3.94-2.52 5.54-1.68 1.61-3.96 2.41-6.86 2.41h-13.39zm3.64 15.16-1.13 7.64h5.52c1.58 0 2.79-.36 3.61-1.08.83-.72 1.24-1.7 1.24-2.94 0-1.15-.46-2.04-1.38-2.67s-2.16-.95-3.73-.95zm1.56-10.56-.9 5.99h3.93c1.24 0 2.19-.29 2.86-.88s1.01-1.37 1.01-2.36c0-1.83-1.28-2.75-3.84-2.75z"/><path d="m704.23 242.19h5.29c-.99 2.51-2.5 4.81-4.52 6.91 1.07.44 2.26.67 3.56.67h1.68l-1.84 4.7c-.61.23-1.34.35-2.19.35-2.28 0-4.37-.72-6.27-2.15-2.48 1.44-5.07 2.15-7.75 2.15-2.78 0-5.08-.79-6.91-2.37s-2.74-3.56-2.74-5.93c0-2.34.87-4.32 2.61-5.96s4.29-2.69 7.65-3.16c-.03-.42-.04-.82-.04-1.2 0-2.95.82-5.26 2.46-6.93s3.82-2.51 6.53-2.51c1.97 0 3.59.54 4.85 1.63s1.89 2.48 1.89 4.18c0 4.04-3.24 6.61-9.71 7.73.63 2.4 1.47 4.38 2.53 5.93 1.32-1.13 2.3-2.49 2.92-4.04zm-10.75-.72c-3.29.63-4.93 2.15-4.93 4.58 0 1.29.44 2.36 1.32 3.19.88.84 2.01 1.25 3.38 1.25 1.12 0 2.31-.31 3.56-.92-1.65-2.61-2.76-5.31-3.33-8.1zm4.64-5.02c1.95-.37 3.44-.86 4.47-1.48 1.04-.62 1.56-1.45 1.56-2.48 0-.71-.25-1.28-.76-1.73s-1.17-.68-1.98-.68c-1.1 0-1.96.38-2.58 1.15-.63.76-.94 1.82-.94 3.18-.01.76.07 1.44.23 2.04z"/><path d="m751.85 227.76-.67 5.05c-2.45-.67-4.88-1-7.26-1-4.05 0-7.34.97-9.87 2.92s-3.8 4.46-3.8 7.54c0 2.35.79 4.19 2.36 5.51s3.68 1.99 6.33 1.99c1.38 0 2.75-.17 4.09-.51l.69-4.86h-5.01l.59-4.33h10.81l-1.95 13.94c-2.15.54-4.99.8-8.5.8-4.95 0-8.76-1.15-11.43-3.45-2.68-2.3-4.01-5.26-4.01-8.89 0-4.32 1.73-8.02 5.2-11.1s8.3-4.62 14.5-4.62c3.01.01 5.65.34 7.93 1.01z"/><path d="m757.52 227.11h9.38c2.92 0 5.19.81 6.8 2.44s2.42 3.55 2.42 5.79c0 1.8-.53 3.35-1.58 4.64s-2.56 2.13-4.51 2.51v.08c1.1.43 2.06 1.5 2.88 3.21l4.21 8.7h-6.42l-2.62-5.54c-1.16-2.46-2.06-3.99-2.7-4.61-.64-.61-1.67-.92-3.11-.92h-1.23l-1.54 11.06h-5.81zm5.15 4.6-1.03 7.44h2.88c1.76 0 3.14-.38 4.12-1.12.98-.75 1.47-1.7 1.47-2.84 0-1.08-.41-1.93-1.22-2.55s-1.94-.93-3.38-.93z"/><path d="m796.38 226.76 4.81 27.71h-5.96l-.85-5.97h-8.5l-2.66 5.97h-6.4l13.42-27.71zm-8.83 17.84h6.33l-1.43-12.1z"/><path d="m808.61 227.11h8.93c2.68 0 4.85.73 6.52 2.18 1.67 1.46 2.51 3.44 2.51 5.96 0 2.88-.9 5.09-2.7 6.62s-4.21 2.29-7.23 2.29h-4.61l-1.43 10.3h-5.81zm5.19 4.33-1.17 8.44h2.46c1.76 0 3.11-.39 4.05-1.18.94-.78 1.42-1.85 1.42-3.21 0-1.25-.46-2.24-1.38-2.97-.92-.72-2.24-1.09-3.96-1.09h-1.42z"/><path d="m857.48 227.11-3.84 27.36h-5.81l1.6-11.14h-13.96l-1.57 11.14h-5.81l3.86-27.36h5.81l-1.53 10.83h13.91l1.52-10.83z"/><path d="m869.56 227.11-3.86 27.36h-5.81l3.86-27.36z"/><path d="m897.78 227.76-.96 5.05c-2.17-.67-4.37-1-6.62-1-3.69 0-6.56 1.06-8.61 3.17-2.04 2.12-3.06 4.6-3.06 7.46 0 2.23.71 4.01 2.11 5.34 1.41 1.32 3.31 1.99 5.7 1.99 2.94 0 6.25-1.06 9.95-3.19l-.84 6.09c-3.25 1.44-6.46 2.15-9.61 2.15-3.97 0-7.18-1.15-9.63-3.46s-3.68-5.33-3.68-9.05c0-4.56 1.66-8.29 4.97-11.19 3.32-2.9 7.6-4.36 12.86-4.36 2.3 0 4.77.33 7.42 1z"/><path d="m914.38 227.11h9.09c4.57 0 8.06 1.24 10.49 3.72 2.42 2.48 3.63 5.68 3.63 9.59 0 4.04-1.24 7.38-3.71 10.04s-5.54 4-9.19 4h-14.12zm5.18 4.6-2.52 18.19h5.44c2.86 0 5.09-.9 6.69-2.69s2.41-4.08 2.41-6.86c0-2.56-.83-4.64-2.49-6.24s-3.9-2.41-6.73-2.41h-2.8z"/><path d="m961.61 227.11-.65 4.6h-11.26l-.91 6.42h9.9l-.64 4.6h-9.9l-1.01 7.17h14.2l-.65 4.56h-20.01l3.86-27.36h17.07z"/><path d="m982.78 228.92-.8 4.82c-.98-.71-2.11-1.28-3.4-1.73s-2.41-.68-3.38-.68c-1.1 0-2.01.29-2.74.85-.73.57-1.1 1.29-1.1 2.17 0 .52.2 1.05.62 1.58.41.53 1.71 1.45 3.9 2.75s3.66 2.59 4.42 3.85 1.14 2.57 1.14 3.93c0 2.42-.84 4.42-2.51 6-1.67 1.59-3.92 2.38-6.75 2.38-3.59 0-6.69-.87-9.3-2.6l.88-4.76c1.17.83 2.48 1.51 3.93 2.03 1.44.52 2.71.77 3.81.77 1.19 0 2.14-.28 2.86-.83s1.08-1.28 1.08-2.18c0-.63-.23-1.26-.69-1.9s-1.79-1.64-4-3c-2.2-1.36-3.64-2.61-4.34-3.76-.69-1.15-1.04-2.34-1.04-3.56 0-2.35.91-4.31 2.74-5.89s4.12-2.37 6.87-2.37c2.74-.03 5.35.69 7.8 2.13z"/><path d="m994.74 227.11-3.86 27.36h-5.81l3.86-27.36z"/><path d="m1024.92 227.76-.67 5.05c-2.45-.67-4.88-1-7.26-1-4.05 0-7.34.97-9.87 2.92s-3.8 4.46-3.8 7.54c0 2.35.79 4.19 2.36 5.51s3.68 1.99 6.33 1.99c1.38 0 2.75-.17 4.09-.51l.68-4.86h-5.01l.59-4.33h10.81l-1.95 13.94c-2.15.54-4.99.8-8.5.8-4.95 0-8.76-1.15-11.43-3.45s-4.01-5.26-4.01-8.89c0-4.32 1.73-8.02 5.2-11.1s8.3-4.62 14.5-4.62c3.02.01 5.67.34 7.94 1.01z"/><path d="m1055.81 227.11-3.81 27.36h-5.53l-11.31-18.52-2.57 18.52h-5.81l3.86-27.36h5.82l11.1 17.85 2.45-17.85z"/><path d="m282.54 26.62h49.05l-11.12 64.65h.5c8.48-12.63 23.84-19.57 37.47-19.57 22.54 0 42.19 9.41 43.08 34.68.2 5.7-.96 15.11-2.61 24.53l-13.07 72.58h-49.05l10.57-58.96c1.23-7.43 3.4-16.1 3.22-21.31-.29-8.17-6.38-12.39-14.3-12.39-15.61 0-20.42 11.15-22.92 24.52l-11.99 68.12h-49.07z"/><path d="m478.29 211.42c-10.42 21.3-24.31 43.69-62.38 43.69-7.88 0-15.53-.5-23.44-1.24l6.24-33.65c4.08.25 8.42.74 12.49.74 10.68 0 18.29-15.5 17.85-27.88l-27.63-118.15h50.85l11.41 77.04h.51l31.06-77.04h52.38z"/><path d="m546.35 74.93h44.88l-3.58 14.61h1.52c8.4-11.89 24.61-17.83 40.46-17.83 37.93 0 50.2 29.97 51.03 52.76 1.4 38.15-16.99 82.24-62.71 82.24-14.81 0-29.42-1.73-41.22-18.83l-10.11 66.22h-51.44zm83.08 55.24c-.46-12.63-4.47-22.79-19.54-22.79-22.86 0-25.87 31.21-25.46 42.61.17 4.71 2.59 21.05 19.48 21.05 20.52 0 26.13-24.27 25.52-40.87z"/><path d="m818.88 166.09c-3.08 8.67-12.12 40.63-70.77 40.63-48.18 0-68.5-25.52-69.65-56.73-2.18-58.96 44.77-78.28 78.55-78.28 30.11 0 67.1 15.85 68.59 56.23.26 6.94.27 14.37-1.79 22.3h-96.89c.5 13.62 5.9 25.02 22.13 25.02 11.26 0 17.63-4.71 20.09-9.17zm-42.38-41.37c.22-1.24.42-2.97.37-4.21-.36-9.66-7.19-17.34-20.28-17.34-13.88 0-22.75 7.93-26.18 21.55z"/><path d="m921.39 71.89c-12.06 1.32-26.1 10.51-33.68 23.11h-.49l3.51-20.07h-47.56l-22.02 128.57h49.05l9.27-53.75c4.25-24.12 12.76-33.8 29.36-35.6 3.07-19.63 7.94-33.16 12.56-42.26z"/><path d="m223.32 32.62h-84.66l-9.86 49.22h61.08s24.56 3.14 27.7-14.14c3.13-17.27 5.74-35.08 5.74-35.08z"/><path d="m122.46 32.62-12.02 67.02h67.93s34.49-3.67 28.23 32.98c-6.27 36.65-9.93 55.77-9.93 55.77s-9.16 27.49-37.77 27.49c-28.6 0-28.6 0-28.6 0l11.5-69.38s3.66-8.11-8.36-8.11-22.99 0-22.99 0-7.84-2.1-10.45 12.56-10.97 64.93-10.97 64.93h-27.7s-36.06 4.19-29.27-35.08c6.8-39.27 17.25-103.68 17.25-103.68s4.69-44.5 47.02-44.5z"/></g><path d="m89.49.01s-59.58-2.09-71.08 68.07c-11.5 70.17-13.22 81.33-16.2 102.8-2.98 21.47-14.63 78.38 71.6 78.38h85.71s65.33 1.57 76.3-69.12 28.22-180.13 28.22-180.13h-174.55zm129.61 182.74c-7.84 52.36-60.62 49.75-60.62 49.75s-15.68 0-85.71 0c-70.03 0-56.96-41.63-55.4-51.05 1.57-9.43 8.88-61 18.29-113.37 9.41-52.36 49.65-52.36 56.96-52.36h151.55s-17.24 114.67-25.07 167.03z" fill="url(#b)"/><path d="m1019.75 72.5c-.96-9.38-7.94-13.47-17.8-13.47-18.52 0-29.11 16.84-32.96 38.97 15.16-9.38 25.74-12.27 41.86-12.27 39.46 0 51.96 30.55 47.63 54.85-7.22 41.38-40.18 59.9-78.43 59.9-49.32 0-74.82-26.7-63.99-88.29 9.14-52.21 42.34-87.33 89.49-87.33 31.75 0 60.14 10.34 61.35 44.75zm-56.29 70.25c-2.17 12.27 6.73 21.89 18.76 21.89 14.67 0 23.58-9.14 26.22-23.58 2.4-13.47-4.81-22.61-17.32-22.61-17.07.48-25.49 11.07-27.66 24.3z" fill="url(#c)"/></svg>